<?xml version="1.0" encoding="UTF-8"?>
<!DOCTYPE svg PUBLIC "-//W3C//DTD SVG 1.1//EN" "http://www.w3.org/Graphics/SVG/1.1/DTD/svg11.dtd">
<svg xmlns="http://www.w3.org/2000/svg" version="1.1" xmlns:xlink="http://www.w3.org/1999/xlink" width="640" height="320">

<style type="text/css" media="all">

.background { fill:lightgray;stroke:blue; }
.backstroke { fill:none;stroke:#F8F8F8;stroke-width:2.5; }
.forestroke { fill:none;stroke:#404040;stroke-width:2.5; }

</style>

     <defs>

     <g id="background">
<!--       <rect width="32" height="32" x="0" y="0" class="background" /> -->
     </g>

     <g id="lock">
       <use x="0" y="0" xlink:href="#background" />
       <path d="M 0,10 L 8,10 L 8,4.5 L 0,4.5 z" fill="#666" stroke-linejoin="round" />
       <path d="M 1.5,5 C 1.5,0 1.5,0 4,0 C 6,0 6,0 6,5" fill="none" stroke="#666" stroke-width="1.5" />
       <!-- <path d="M 1,15 L 15,15 L 15,7 L 13,7 L 13,6 C 13,2 11,1 8,1 C 4,1 3,2 3,6 L 3,7 L 1,7 z M 11,7 L 5,7 L 5,5 C 5,3.5 6,2.5 8,2.5 C 11,2.5 11,2.5 11,5 z" fill="#888" /> -->
       <!-- <path d="M 24,6 L 24,26 L 21,26 L 21,17 L 8,26 L 8,6 L 21,15 L 21,6 z" fill="url(#gradient)" stroke-linejoin="round" /> -->
     </g>

   </defs>

<!--

java -jar batik-rasterizer.jar -h 16 -w 16 -a 0,0,16,16 artwork/Icons.svg -d nion/swift/resources/lock.png

-->

<g transform="translate(4.5, 2)">
   <use x="0" y="0" xlink:href="#lock" />
</g>

</svg>
